<svg version="1.1" id="Icons" xmlns="http://www.w3.org/2000/svg" xmlns:xlink="http://www.w3.org/1999/xlink" x="0px" y="0px" viewBox="0 0 32 32" style="enable-background:new 0 0 32 32;" xml:space="preserve">
<style type="text/css">
	.st0{fill:none;stroke:#000000;stroke-width:2;stroke-linecap:round;stroke-linejoin:round;stroke-miterlimit:10;}
</style>
<line class="st0" x1="3" y1="29" x2="23" y2="29" id="id_107" style="stroke: rgb(237, 228, 182);"></line>
<path class="st0" d="M4,11v6.2C4,22,8,26,13,26c5,0,9-4,9-8.8V11H4z" id="id_108" style="stroke: rgb(237, 227, 178);"></path>
<path class="st0" d="M25,21L25,21c-1.7,0-3-1.3-3-3v-3c0-1.6,1.3-3,3-3h0c1.6,0,3,1.3,3,3v3C28,19.7,26.7,21,25,21z" id="id_109" style="stroke: rgb(235, 225, 176);"></path>
<path class="st0" d="M13,2L13,2c-1.2,1.8-1.2,4.2,0,6l0,0" id="id_110" style="stroke: rgb(237, 227, 178);"></path>
<path class="st0" d="M9,2L9,2C7.8,3.8,7.8,6.2,9,8l0,0" id="id_111" style="stroke: rgb(240, 230, 183);"></path>
<path class="st0" d="M17,2L17,2c-1.2,1.8-1.2,4.2,0,6l0,0" id="id_112" style="stroke: rgb(237, 228, 182);"></path>
</svg>